<link rel="stylesheet" href="style/login.css">
<svg class="svg-login" width="2000px" height="2000px" version="1.1"
    style="fill: #26282E; margin-top: -800px; margin-left: -1000px; position:absolute;z-index:-1" viewBox="0 0 2000 2000">
    <g id="Camada_x0020_1">
        <metadata id="CorelCorpID_0Corel-Layer" />
        <path
            d="M365 762l-1 0c-2,6 -6,13 -7,19 -1,4 -2,7 -2,10 -1,5 -2,11 -2,17l0 8c0,6 0,13 1,19 0,1 0,1 0,2 1,1 1,1 1,2 0,1 0,2 0,4l2 11c3,22 0,38 -5,59 -1,6 -3,13 -5,19 -2,6 -4,12 -6,19 -1,2 -2,3 -2,5 -1,1 -1,3 -2,4 -2,3 -3,6 -4,9 -2,3 -3,6 -5,8 -7,14 -16,27 -22,41 -3,6 -4,11 -5,18 -1,5 -1,11 0,16l0 4c3,12 7,23 13,34l3 6c0,0 0,0 0,0l12 23c0,2 0,2 1,4 1,1 1,2 2,3 3,7 5,13 6,21 1,6 0,11 -2,17 -1,8 0,15 2,22l3 9c0,1 0,2 1,3l4 10c4,9 9,17 15,25 4,4 7,7 12,10 8,6 9,5 17,6 14,3 19,11 23,21 1,2 1,3 1,4l3 7c3,9 5,19 9,28 3,8 7,15 12,23 2,4 6,8 9,11 1,2 3,4 5,6 4,4 8,7 12,10l11 7c22,16 41,30 51,54l3 5c0,2 0,3 1,4 1,1 1,2 1,3 7,12 13,20 24,29 11,11 25,19 41,25 17,8 47,16 65,21 3,1 3,1 5,2 2,0 4,1 5,1 12,5 22,10 30,19 8,9 13,20 22,30l11 10 13 10c4,3 10,5 15,5 5,3 11,5 16,4l17 -1 16 -3c13,-3 24,-9 37,-12 12,-3 24,-2 36,1 2,0 4,1 5,1 2,1 3,1 5,1 19,6 48,15 67,19 17,2 33,4 50,2 14,-3 25,-6 37,-12 2,-1 2,-1 4,-2 1,0 2,-1 3,-2l5 -3c25,-14 49,-15 77,-16l14 0c6,0 11,-1 16,-2 3,0 6,-1 8,-1 5,-2 10,-3 15,-5 9,-4 17,-7 25,-12 9,-6 17,-12 26,-18l6 -4c1,-1 2,-2 3,-2 11,-7 20,-10 32,-5 8,3 9,4 18,4 6,0 12,-1 17,-2 10,-3 20,-7 29,-12l10 -6c1,-1 2,-1 3,-2l8 -6c6,-5 11,-10 15,-16 4,-6 5,-10 10,-15 6,-6 12,-10 19,-14 1,0 3,-1 4,-1 1,-1 2,-1 3,-2l25 -12c0,0 0,0 0,0l6 -4c12,-6 23,-13 33,-21l3 -3c4,-4 8,-8 11,-13 3,-5 6,-11 7,-17 4,-15 6,-30 9,-44 0,-4 1,-6 2,-10 1,-3 2,-6 2,-9 1,-1 1,-3 2,-4 1,-2 0,-3 1,-5 3,-7 5,-13 8,-19 2,-6 5,-12 8,-18 11,-20 18,-35 35,-50l9 -8c1,-1 2,-2 3,-3 1,-1 1,-1 1,-1 1,-1 1,-1 2,-2 5,-5 9,-9 14,-15l5 -6c4,-5 7,-10 10,-15 1,-3 2,-6 4,-9 3,-5 4,-10 6,-15l1 0c2,-6 5,-13 7,-19 0,-3 2,-7 2,-10 1,-5 2,-11 2,-17l0 -8c0,-6 -1,-13 -1,-19 -1,-1 -1,-1 -1,-2 0,-1 0,-1 0,-2 0,-1 0,-2 0,-4l-2 -11c-3,-21 0,-37 5,-59 1,-6 3,-12 4,-19 2,-6 5,-12 7,-19 1,-2 1,-2 2,-4 1,-2 1,-4 2,-5 2,-3 3,-6 4,-9 2,-3 3,-5 4,-8 8,-14 16,-27 23,-41 3,-6 4,-11 5,-17 1,-6 1,-12 0,-17l-1 -3c-2,-13 -7,-24 -12,-35l-3 -6c0,0 0,0 0,0l-12 -23c0,-2 -1,-2 -1,-4 -1,-1 -1,-2 -2,-3 -3,-7 -6,-13 -6,-21 -1,-6 0,-11 1,-17 2,-8 0,-14 -1,-21l-3 -9c0,-2 0,-3 -1,-4l-4 -10c-4,-9 -9,-17 -16,-25 -3,-4 -7,-7 -11,-10 -8,-6 -10,-5 -18,-6 -13,-3 -18,-11 -22,-21 -1,-1 -1,-3 -2,-4l-2 -7c-3,-9 -6,-19 -9,-28 -3,-8 -8,-15 -12,-22 -3,-5 -6,-9 -9,-12 -2,-2 -3,-4 -5,-6 -4,-3 -8,-7 -13,-10l-10 -7c-23,-16 -41,-30 -52,-54l-2 -5c0,-2 -1,-2 -1,-4 -1,-1 -1,-2 -2,-3 -6,-12 -12,-20 -23,-29 -12,-11 -26,-19 -41,-25 -18,-8 -47,-15 -66,-21 -2,-1 -3,-1 -4,-2 -2,0 -4,-1 -6,-1 -11,-4 -21,-10 -29,-19 -8,-9 -14,-20 -22,-29l-11 -11 -13 -10c-4,-3 -11,-5 -16,-5 -5,-3 -11,-4 -15,-4l-17 1 -16 3c-13,3 -25,9 -38,12 -12,3 -24,2 -36,-1 -1,0 -3,-1 -5,-1 -2,-1 -3,-1 -5,-1 -19,-6 -47,-15 -67,-18 -16,-3 -33,-5 -49,-2 -15,2 -25,5 -38,11 -1,1 -2,1 -3,2 -2,1 -2,1 -4,2l-5 3c-24,14 -49,16 -77,16l-13 0c-6,0 -12,1 -17,2 -3,0 -5,1 -8,2 -5,1 -10,2 -15,4 -8,4 -17,7 -24,12 -9,6 -18,12 -26,18l-7 5c-1,0 -2,1 -3,2 -10,6 -20,10 -32,4 -7,-3 -8,-4 -18,-4 -6,0 -11,1 -17,2 -10,3 -20,7 -28,12l-10 6c-2,1 -2,1 -4,2l-7 6c-6,5 -12,10 -16,17 -3,5 -5,10 -10,14 -6,6 -12,10 -19,14 -1,1 -2,1 -3,2 -2,0 -2,1 -4,1l-24 13c0,0 -1,0 -1,0l-6 3c-12,6 -23,13 -33,21l-3 3c-4,4 -7,8 -10,13 -4,6 -6,11 -8,17 -4,15 -6,30 -8,45 -1,3 -2,6 -2,9 -1,3 -2,6 -3,9 0,2 -1,3 -2,5 0,2 0,2 -1,4 -2,7 -5,13 -7,20 -3,6 -6,12 -9,17 -10,20 -18,35 -35,50l-8 8c-2,1 -2,2 -3,3 -1,1 -1,1 -2,2 0,0 -1,1 -1,1 -5,5 -10,10 -14,15l-6 6c-4,5 -6,10 -9,15 -2,3 -3,6 -5,9 -2,5 -4,10 -5,16l0 -1z" />
    </g>
</svg>